<?xml version="1.0" encoding="UTF-8"?>
<svg id="Layer_1" xmlns="http://www.w3.org/2000/svg" viewBox="0 0 307.91 499.53">
  <defs>
    <style>
      .cls-1 {
        fill: #888c8d;
      }

      .cls-2 {
        fill: #004f6e;
      }
    </style>
  </defs>
  <polygon class="cls-1" points="28.53 362.5 143.61 499.53 168.91 459.42 206.54 397.42 307.75 435.08 307.75 408.51 175.57 360.48 175.53 360.42 175.5 360.45 175.43 360.43 175.47 360.49 134.69 423.56 73.81 351.65 28.53 362.5"/>
  <polygon class="cls-2" points="0 0 0 261.82 56.82 329.49 56.82 166.3 153.91 296 153.91 296.14 153.96 296.08 154.02 296.14 154.02 296 251.1 166.3 251.1 330.14 307.91 317.1 307.91 173.91 239.35 92.92 153.96 210.52 61.08 82.61 0 0"/>
</svg>