<?xml version="1.0" encoding="UTF-8"?>
<svg id="Layer_1" xmlns="http://www.w3.org/2000/svg" viewBox="0 0 500 500">
  <defs>
    <style>
      .cls-1 {
        fill: none;
      }

      .cls-2 {
        fill: #888c8d;
      }

      .cls-3 {
        fill: #004f6e;
      }
    </style>
  </defs>
  <rect class="cls-1" width="500" height="500"/>
  <polygon class="cls-2" points="125.07 362.97 240.15 500 265.44 459.89 303.08 397.89 404.29 435.55 404.29 408.98 272.11 360.95 272.06 360.88 272.04 360.92 271.96 360.89 272.01 360.96 231.23 424.03 170.34 352.12 125.07 362.97"/>
  <polygon class="cls-3" points="96.54 .47 96.54 262.29 153.36 329.95 153.36 166.76 250.45 296.47 250.45 296.61 250.5 296.54 250.55 296.61 250.55 296.47 347.64 166.76 347.64 330.61 404.45 317.56 404.45 174.38 335.89 93.38 250.5 210.99 157.62 83.08 96.54 .47"/>
</svg>